# xmcd
#
# Track frame offsets: 
#        150
#        21898
#        37560
#        60261
#        84525
#        102744
#        119156
#        138652
#        156635
#        173683
#        191624
#        207877
#
# Disc length: 2981 seconds
#
# Revision: 4
# Processed by: cddbd v1.5.2PL0 Copyright (c) Steve Scherf et al.
# Submitted via: ExactAudioCopyFreeDBPlugin 1.0
#
DISCID=a50ba30c
DTITLE=Kurt Nilsen - Rise to the Occasion
DYEAR=2008
DGENRE=Pop
TTITLE0=Last Storm
TTITLE1=Lost Highway
TTITLE2=Stop the Time
TTITLE3=Second Chance
TTITLE4=Country Music
TTITLE5=Rise to the Occasion
TTITLE6=Four Seasons
TTITLE7=Mother's Word
TTITLE8=Working Man
TTITLE9=Don't Have What it Takes
TTITLE10=Soon it's Gonna Change
TTITLE11=Lost Highway (World Headquarters Session)
EXTD=
EXTT0=
EXTT1=
EXTT2=
EXTT3=
EXTT4=
EXTT5=
EXTT6=
EXTT7=
EXTT8=
EXTT9=
EXTT10=
EXTT11=
PLAYORDER=
